<svg xmlns="http://www.w3.org/2000/svg" width="45" height="45" viewBox="0 0 45 45"><g><g><g><path fill="#dcdcdc" d="M22.495 44.033C10.6 44.033.957 34.39.957 22.495S10.6.957 22.495.957 44.033 10.6 44.033 22.495 34.39 44.033 22.495 44.033zM22.5 45C34.926 45 45 34.926 45 22.5S34.926 0 22.5 0 0 10.074 0 22.5 10.074 45 22.5 45z"/></g><g><path fill="#fff" d="M17.1 13.84h8.638c2.982.494 4.418 2.084 4.418 4.865 0 2.766-1.408 4.085-4.384 4.085H17.1zM14 22.79v.84h2.255v2.54H14v1h2.255V33h.845v-5.83H26v-1h-8.9v-2.54h8.672c3.432 0 5.228-1.684 5.228-4.925 0-3.215-1.757-5.147-5.16-5.7L25.772 13h-9.517v9.79z"/></g></g></g></svg>