<svg xmlns="http://www.w3.org/2000/svg" width="45" height="45" viewBox="0 0 45 45"><g><g><g><path fill="#dcdcdc" d="M22.495 44.033C10.6 44.033.957 34.39.957 22.495S10.6.957 22.495.957 44.033 10.6 44.033 22.495 34.39 44.033 22.495 44.033zM22.5 45C34.926 45 45 34.926 45 22.5S34.926 0 22.5 0 0 10.074 0 22.5 10.074 45 22.5 45z"/></g><g><path fill="#fff" d="M20.194 32.25c0-.967.808-1.75 1.806-1.75s1.806.783 1.806 1.75S22.998 34 22 34s-1.806-.783-1.806-1.75zm2.71 0c0-.483-.405-.875-.904-.875s-.903.392-.903.875.404.875.903.875.903-.392.903-.875zM17.698 11.5H26.3c1.188 0 2.15.941 2.15 2.102v14.296c0 1.16-.962 2.102-2.15 2.102H17.7c-1.188 0-2.15-.941-2.15-2.102V13.602c0-1.16.962-2.102 2.15-2.102zm0 .84c-.713 0-1.29.566-1.29 1.262v14.296c0 .696.577 1.261 1.29 1.261H26.3c.713 0 1.29-.565 1.29-1.261V13.602c0-.696-.577-1.261-1.29-1.261zM16.162 10h11.676c1.194 0 2.162.949 2.162 2.119V32.88c0 1.17-.968 2.119-2.162 2.119H16.162C14.968 35 14 34.051 14 32.881V12.12c0-1.17.968-2.119 2.162-2.119zm0 .847c-.716 0-1.297.57-1.297 1.272V32.88c0 .702.58 1.272 1.297 1.272h11.676c.716 0 1.297-.57 1.297-1.272V12.12c0-.702-.58-1.272-1.297-1.272z"/></g></g></g></svg>