<svg xmlns="http://www.w3.org/2000/svg" width="45" height="45" viewBox="0 0 45 45"><g><g><g><path fill="#dcdcdc" d="M22.495 44.033C10.6 44.033.957 34.39.957 22.495S10.6.957 22.495.957 44.033 10.6 44.033 22.495 34.39 44.033 22.495 44.033zM22.5 45C34.926 45 45 34.926 45 22.5S34.926 0 22.5 0 0 10.074 0 22.5 10.074 45 22.5 45z"/></g><g><path fill="#fff" d="M27.648 14.183c0-1.255-.953-2.273-2.13-2.273h-5.537c-1.176 0-2.13 1.018-2.13 2.273v3.98h9.797zm-3.916 12.682c0 .08.003.175.015.45.014.305.019.494.015.703-.02 1.165-.356 1.912-1.262 1.912-.905 0-1.245-.745-1.273-1.915-.005-.209-.002-.394.01-.705.009-.276.012-.374.01-.458-.762-.484-1.247-1.379-1.247-2.37 0-1.512 1.12-2.738 2.5-2.738S25 22.97 25 24.482c0 1-.494 1.903-1.268 2.383zm-.803 1.136c.003-.183-.001-.356-.014-.643a7.088 7.088 0 0 1-.015-.569c.01-.334.055-.524.305-.652.582-.298.962-.939.962-1.655 0-1.008-.747-1.825-1.667-1.825s-1.667.817-1.667 1.825c0 .708.37 1.341.942 1.644.242.129.29.32.303.647.005.133.003.22-.01.572-.01.292-.012.462-.008.645.018.735.151 1.028.44 1.028.287 0 .417-.289.43-1.017zm-6.906-9.838H17v-3.98C17 12.425 18.335 11 19.981 11h5.538c1.646 0 2.981 1.425 2.981 3.183v3.98h.477c1.67 0 3.023 1.409 3.023 3.147v8.543C32 31.59 30.647 33 28.977 33H16.023C14.353 33 13 31.59 13 29.853V21.31c0-1.738 1.353-3.147 3.023-3.147zm0 .899c-1.193 0-2.16 1.006-2.16 2.248v8.543c0 1.241.967 2.248 2.16 2.248h12.954c1.193 0 2.16-1.007 2.16-2.248V21.31c0-1.241-.967-2.248-2.16-2.248H28.5v.124H17v-.124z"/></g></g></g></svg>