<svg xmlns="http://www.w3.org/2000/svg" width="45" height="45" viewBox="0 0 45 45"><g><g><g><path fill="#fff" d="M14.06 32.55a1.139 1.139 0 0 1-1.145-1.132c0-.626.513-1.133 1.144-1.133.632 0 1.145.507 1.145 1.133s-.513 1.133-1.145 1.133zm7.952-19.644c.065.357.37.627.738.627.414 0 .75-.343.75-.766a.758.758 0 0 0-.75-.767.742.742 0 0 0-.568.266V12h-2.243l-.13.114c-.933.82-1.405 1.874-1.405 3.13 0 2.769 1.803 8.82 3.57 9.71.661.332 1.517.564 2.427.691.129.487.522.867 1.018.98v4.356c-.157 2.121-1.084 3.113-2.873 3.113-1.753 0-2.461-.939-2.236-3.066l.002-.047v-2.725l-.006-.076c-.277-1.611-1.4-2.451-3.226-2.451-1.803 0-3.018.81-3.543 2.385l-.023.07v1.267A2.043 2.043 0 0 0 12 31.418a2.05 2.05 0 0 0 2.06 2.039 2.05 2.05 0 0 0 2.059-2.04 2.045 2.045 0 0 0-1.69-2.005v-1.08c.407-1.146 1.258-1.697 2.651-1.697 1.384 0 2.11.532 2.317 1.66v2.663C19.128 33.57 20.214 35 22.546 35c2.301 0 3.596-1.385 3.787-3.986l.001-4.492c.333-.162.59-.453.704-.807 1.086-.098 2.05-.364 2.632-.806 1.355-1.033 3.217-7.092 3.321-9.646.085-2.064-.454-3.263-1.656-3.263h-2.89v.066a.768.768 0 0 0-.445.7c0 .424.336.767.75.767.368 0 .673-.27.738-.627h1.847c.491 0 .808.705.742 2.32-.095 2.308-1.887 8.144-2.965 8.964-.436.332-1.208.538-2.101.62a1.373 1.373 0 0 0-1.281-.868c-.556 0-1.035.327-1.25.797-.791-.113-1.531-.312-2.09-.594-1.35-.679-3.07-6.452-3.07-8.9 0-.941.32-1.712.972-2.339z"/></g><g><path fill="#dcdcdc" d="M22.495 44.033C10.6 44.033.957 34.39.957 22.495S10.6.957 22.495.957 44.033 10.6 44.033 22.495 34.39 44.033 22.495 44.033zM22.5 45C34.926 45 45 34.926 45 22.5S34.926 0 22.5 0 0 10.074 0 22.5 10.074 45 22.5 45z"/></g></g></g></svg>