<svg xmlns="http://www.w3.org/2000/svg" width="89" height="27" viewBox="0 0 89 27"><g><g><g><path fill="none" stroke="#fff" stroke-miterlimit="50" d="M1 13.12c0-6.627 5.373-12 12-12h63c6.627 0 12 5.373 12 12v.745c0 6.627-5.373 12-12 12H13c-6.627 0-12-5.373-12-12z"/></g><g><g><g><path fill="#fff" d="M23.992 12.859c-.016-1.76 1.44-2.617 1.507-2.657-.824-1.203-2.103-1.367-2.552-1.38-1.074-.114-2.115.642-2.662.642-.558 0-1.4-.632-2.308-.613-1.168.018-2.26.695-2.86 1.746-1.236 2.142-.314 5.29.87 7.022.594.85 1.286 1.796 2.193 1.762.887-.036 1.218-.566 2.289-.566 1.06 0 1.371.566 2.296.544.952-.014 1.55-.851 2.123-1.707.685-.971.96-1.93.97-1.979-.02-.007-1.847-.705-1.866-2.814"/></g><g><path fill="#fff" d="M22.246 7.683c.477-.597.803-1.409.713-2.233-.69.03-1.554.478-2.051 1.062-.44.514-.833 1.357-.732 2.15.776.058 1.572-.391 2.07-.979"/></g></g><g><g><path fill="#fff" d="M34.719 16.242h-1.95l.603-1.9a58.59 58.59 0 0 0 .345-1.373h.022c.179.72.301 1.177.366 1.372zm2.123 3.026L34.493 12h-1.444l-2.339 7.268h1.207l.647-2.135h2.36l.679 2.135z"/></g><g><path fill="#fff" d="M41.657 16.627c0 .554-.122 1-.367 1.337-.243.337-.585.507-1.023.507-.373 0-.677-.132-.91-.394a1.402 1.402 0 0 1-.35-.965v-.875c0-.093.017-.21.053-.354.072-.31.225-.559.458-.75.233-.19.494-.286.781-.286.424 0 .762.173 1.013.518.23.331.345.752.345 1.262zm1.186-.043c0-.798-.207-1.441-.62-1.931-.412-.489-.928-.733-1.545-.733-.79 0-1.38.313-1.768.94h-.022l-.065-.832H37.8c.028.589.043 1.163.043 1.723v5.642h1.164v-2.75c.303.497.802.744 1.495.744.643 0 1.181-.23 1.615-.69.484-.517.726-1.222.726-2.113z"/></g><g><path fill="#fff" d="M47.675 16.627c0 .554-.122 1-.366 1.337-.243.337-.584.507-1.022.507-.374 0-.676-.132-.91-.394a1.408 1.408 0 0 1-.349-.965v-.875c0-.093.02-.21.055-.354.071-.31.224-.559.456-.75.234-.19.494-.286.78-.286.424 0 .76.173 1.011.518.23.331.345.752.345 1.262zm1.188-.043c0-.798-.207-1.441-.619-1.931-.413-.489-.93-.733-1.546-.733-.791 0-1.38.313-1.768.94h-.022l-.065-.832H43.82c.028.589.043 1.163.043 1.723v5.642h1.164v-2.75c.303.497.802.744 1.495.744.643 0 1.181-.23 1.615-.69.485-.517.726-1.222.726-2.113z"/></g><g><path fill="#fff" d="M55.605 17.228c0 .618-.215 1.12-.646 1.51-.472.423-1.132.635-1.978.635-.782 0-1.408-.15-1.881-.452l.27-.97c.51.301 1.07.452 1.68.452.439 0 .78-.099 1.024-.296a.968.968 0 0 0 .367-.792c0-.296-.102-.544-.302-.745-.202-.2-.535-.388-1.002-.56-1.272-.474-1.908-1.17-1.908-2.082 0-.596.225-1.084.673-1.466.448-.381 1.043-.572 1.783-.572.661 0 1.212.115 1.65.345l-.293.95a2.882 2.882 0 0 0-1.395-.335c-.41 0-.733.101-.963.302a.865.865 0 0 0-.293.659c0 .287.112.525.336.71.193.173.545.36 1.055.562.626.252 1.085.546 1.38.883.296.338.443.759.443 1.262"/></g><g><path fill="#fff" d="M59.46 14.9h-1.283v2.545c0 .647.225.97.679.97.207 0 .38-.017.516-.054l.033.884c-.23.086-.531.13-.905.13-.46 0-.819-.142-1.078-.422-.259-.28-.388-.75-.388-1.413V14.9h-.764v-.874h.764v-.96l1.143-.345v1.305h1.282v.876"/></g><g><path fill="#fff" d="M64.014 16.63c0 .482-.107.897-.32 1.25-.252.422-.6.635-1.042.635-.453 0-.803-.208-1.054-.625-.208-.343-.31-.757-.31-1.238 0-.495.102-.914.31-1.259.242-.417.6-.624 1.063-.624.45 0 .8.208 1.042.624.208.345.31.757.31 1.238zm1.216-.026c0-.785-.222-1.423-.669-1.918-.467-.51-1.084-.766-1.853-.766-.798 0-1.432.26-1.902.777s-.706 1.182-.706 1.994c0 .776.228 1.42.684 1.93.457.51 1.069.765 1.838.765.798 0 1.437-.266 1.918-.798.46-.517.69-1.179.69-1.984z"/></g><g><path fill="#fff" d="M69.023 15.052a2.025 2.025 0 0 0-.366-.032c-.41 0-.726.154-.95.464-.193.273-.29.618-.29 1.035v2.75h-1.163v-3.59c0-.604-.012-1.155-.034-1.65h1.014l.042 1.002h.032c.124-.344.317-.622.582-.83.26-.188.54-.281.841-.281.108 0 .205.008.291.021l.001 1.111"/></g><g><path fill="#fff" d="M73.125 16.097l-2.433-.001c.035-.35.15-.654.345-.906.237-.317.548-.474.93-.474.418 0 .729.161.931.486.159.252.235.55.227.895zm1.1.302c0-.654-.155-1.204-.463-1.648-.387-.56-.959-.841-1.713-.841-.769 0-1.38.28-1.832.84-.432.525-.647 1.183-.647 1.973 0 .804.233 1.447.695 1.925.464.477 1.101.716 1.913.716.675 0 1.26-.108 1.756-.323l-.182-.809a3.848 3.848 0 0 1-1.413.248c-.466 0-.847-.122-1.141-.366-.324-.273-.494-.67-.506-1.187h3.49c.03-.144.043-.32.043-.528z"/></g></g><g><path fill="#fff" d="M57.295 7.641c-.097.048-.239.072-.426.072h-.595v-.63h.678c.162 0 .284.024.366.07.081.047.122.123.122.227 0 .126-.048.213-.145.261zm-.357 1.227h-.664v-.74h.65c.198 0 .347.026.446.079.099.053.149.142.149.268 0 .262-.194.393-.58.393zm.028-2.205H55.72V9.28h1.25c.36 0 .635-.067.824-.2a.658.658 0 0 0 .283-.571c0-.166-.054-.301-.161-.405-.107-.104-.262-.168-.464-.192v-.019c.361-.064.542-.251.542-.56 0-.447-.343-.67-1.028-.67zm-4.88.639c.104-.155.273-.232.505-.232.444 0 .666.299.666.897 0 .604-.22.906-.66.906-.446 0-.669-.302-.669-.906 0-.29.053-.51.157-.665zm1.42-.321c-.221-.244-.521-.366-.9-.366-.396 0-.704.12-.922.358-.217.238-.326.57-.326.994 0 .273.05.512.151.719.101.207.246.365.434.476.188.11.404.165.649.165.391 0 .697-.12.916-.36.22-.24.33-.573.33-1 0-.414-.11-.742-.332-.986zm-5.123-.318V9.28h.556V8.151h1.235v1.13h.557V6.662h-.557v1.05h-1.235v-1.05zm-3.074 0V9.28h.559V7.103h1.18V9.28h.562V6.663zM43.374 9.28l-.098.246c-.109.311-.297.466-.566.466-.107 0-.202-.009-.286-.028v.44c.117.027.237.04.36.04.475 0 .814-.272 1.018-.816l1.12-2.965h-.601a119.02 119.02 0 0 0-.602 1.764c-.038.124-.064.23-.078.316h-.019a2.814 2.814 0 0 0-.16-.597l-.534-1.483h-.606zM39.96 6.663v.435h.853V9.28h.559V7.098h.853v-.435zm-.628 2.627c.113-.026.22-.068.319-.126V8.68a1.427 1.427 0 0 1-.704.185c-.219 0-.384-.074-.497-.222-.113-.147-.17-.368-.17-.661 0-.601.227-.902.68-.902.154 0 .348.046.584.137l.168-.447a1.756 1.756 0 0 0-.746-.154c-.408 0-.72.119-.936.355-.216.237-.323.575-.323 1.016 0 .432.103.764.309.995.206.23.508.346.904.346.162 0 .299-.012.412-.037zm-3.848-1.988c.106-.155.276-.232.51-.232.447 0 .67.299.67.897 0 .604-.222.906-.665.906-.449 0-.673-.302-.673-.906 0-.29.053-.51.158-.665zm1.42-.321c-.221-.244-.521-.366-.9-.366-.397 0-.704.12-.922.358-.218.238-.327.57-.327.994 0 .273.05.512.152.719.1.207.245.365.433.476.188.11.405.165.65.165.39 0 .697-.12.916-.36.22-.24.33-.573.33-1 0-.414-.111-.742-.332-.986zm-3.48-.671v2.475H31.91c.183-.352.347-.763.49-1.234.144-.47.233-.884.268-1.241zm-2.375 3.924h.544V9.28h2.286v.954h.544v-1.44h-.447V5.82H32.19a7.793 7.793 0 0 1-.298 1.567c-.154.52-.346.99-.575 1.408h-.267z"/></g></g></g></g></svg>