<svg xmlns="http://www.w3.org/2000/svg" width="89" height="27" viewBox="0 0 89 27"><defs><linearGradient id="rqsqa" x1="18.16" x2="22.56" y1="8.31" y2="14.88" gradientUnits="userSpaceOnUse"><stop offset="0" stop-color="#ff177b"/><stop offset="1" stop-color="#ffec73"/></linearGradient><linearGradient id="rqsqb" x1="11.61" x2="3.04" y1="1.48" y2="20.01" gradientUnits="userSpaceOnUse"><stop offset="0" stop-color="#064aa2"/><stop offset="1" stop-color="#63ffd4"/></linearGradient><linearGradient id="rqsqe" x1="20.88" x2="10.34" y1="13.52" y2="19.93" gradientUnits="userSpaceOnUse"><stop offset="0" stop-color="#ff4521"/><stop offset="1" stop-color="#8a33db"/></linearGradient><linearGradient id="rqsqf" x1="11.42" x2="16.81" y1="1.74" y2="16" gradientUnits="userSpaceOnUse"><stop offset="0" stop-color="#00a3b5"/><stop offset="1" stop-color="#d6ffa1"/></linearGradient><clipPath id="rqsqc"><path d="M17.997 13.437L11.425 7.1c-.153.036-.245.153-.245.35v12.125c0 .166.066.265.147.3z"/></clipPath><clipPath id="rqsqd"><path d="M11.59 19.84l3.799-2.122 1.678-.946 2.762-1.514-1.839-1.818-6.67 6.438a.46.46 0 0 0 .308-.04"/></clipPath><clipPath id="rqsqg"><path d="M11.774 7.153a.485.485 0 0 0-.354-.06l6.578 6.346 1.82-1.752-2.744-1.546-4.146-2.338z"/></clipPath></defs><g><g><g><path fill="none" stroke="#fff" stroke-miterlimit="50" d="M1 13.12c0-6.627 5.373-12 12-12h63c6.627 0 12 5.373 12 12v.745c0 6.627-5.373 12-12 12H13c-6.627 0-12-5.373-12-12z"/></g><g><g><g><path fill="url(#rqsqa)" d="M17.068 10.14l-5.291-2.982c-.294-.166-.587-.065-.587.28V19.59c0 .259.21.371.464.227l5.414-3.052 1.051-.592 1.692-.953 2.637-1.486c.31-.175.28-.414.019-.551a352.687 352.687 0 0 1-2.656-1.496z"/></g><g><g><g><path fill="url(#rqsqb)" d="M17.997 13.437L11.425 7.1c-.153.036-.245.153-.245.35v12.125c0 .166.066.265.147.3z"/></g></g><g><g/><g clip-path="url(#rqsqc)"/></g></g><g><g><g/><g clip-path="url(#rqsqd)"><path fill="url(#rqsqe)" d="M17.066 10.147c-.01.023-5.006-2.8-5.297-2.944-.297-.187-.589-.087-.589.25v12.175c0 .268.209.38.441.25.278-.158 5.435-3.071 5.445-3.094l2.746-1.547c-.014.022 2.312-1.293 2.6-1.447.33-.195.301-.435.049-.549-.27-.16-2.663-1.522-2.649-1.547z"/></g></g></g><g><g><g><path fill="url(#rqsqf)" d="M11.774 7.153a.485.485 0 0 0-.354-.06l6.578 6.346 1.82-1.752-2.744-1.546-4.146-2.338z"/></g></g><g><g/><g clip-path="url(#rqsqg)"/></g></g></g><g><g><path fill="#fff" d="M56.102 16.144l-2.04.915c-.01-.208-.033-.416-.033-.611 0-1.252.84-1.612 1.288-1.612.604 0 1.11.534 1.11.997 0 .162-.111.23-.325.311zm1.628 2.935c.052-.053-.022-.014-.022-.014-.366.183-.765.362-1.303.362-1.077 0-2.051-.851-2.334-2.314l.873-.069 2.663-1.093c-.081-.264-.227-.759-.793-1.139a2.18 2.18 0 0 0-1.167-.322c-1.167 0-2.597.875-2.597 2.66 0 .86.352 1.85 1.156 2.425.579.425 1.146.45 1.508.45.34 0 .723-.045 1.1-.218.124-.058.248-.139.374-.209z"/></g><g><path fill="#fff" d="M52.179 19.014c0 .446.078.515.45.55.193.023.386.034.576.057l-.417.253h-1.99c.26-.345.305-.38.305-.608v-.257l-.004-6.825h-.879l.846-.414h1.615c-.35.206-.455.332-.5.733l-.002 6.51"/></g><g><path fill="#fff" d="M48.602 17.932a1.13 1.13 0 0 1-.759.32c-.96 0-1.397-1.272-1.397-2.04 0-.298.057-.608.246-.847.178-.23.492-.38.782-.38.93 0 1.41 1.285 1.41 2.11 0 .207-.023.572-.282.837zm-.31 2.199c.863.633 1.237.949 1.237 1.546 0 .726-.579 1.265-1.67 1.265-1.215 0-2-.6-2-1.43 0-.831.727-1.111.979-1.206.475-.165 1.09-.188 1.192-.188.113 0 .169 0 .262.013zm.793-5.076h.7l.723-.415h-2.323c-.61 0-1.376.093-2.019.632a2.076 2.076 0 0 0-.722 1.538c0 .894.676 1.803 1.872 1.803.112 0 .237-.013.36-.025-.055.137-.113.253-.113.448 0 .355.18.573.34.782-.508.034-1.455.092-2.154.527-.667.4-.869.986-.869 1.4 0 .849.79 1.64 2.424 1.64 1.94 0 2.966-1.088 2.966-2.167 0-.793-.451-1.183-.947-1.609l-.407-.32c-.123-.102-.293-.24-.293-.494 0-.25.17-.412.316-.562.475-.379.946-.78.946-1.63 0-.872-.54-1.331-.8-1.548z"/></g><g><path fill="#fff" d="M43.453 19.089c-.26.37-.712.59-1.154.59-1.37 0-1.922-1.89-1.922-3.034 0-.5.078-1.01.52-1.416.27-.244.646-.393 1.02-.393 1.401 0 1.876 1.947 1.876 2.967 0 .452-.067.915-.34 1.286zm-1.396.935c1.843 0 2.871-1.443 2.871-2.807 0-1.397-1.04-2.727-2.701-2.727-1.719 0-2.927 1.295-2.927 2.808 0 1.296.961 2.726 2.757 2.726z"/></g><g><path fill="#fff" d="M37.433 19.089c-.26.37-.712.59-1.153.59-1.369 0-1.923-1.89-1.923-3.034 0-.5.078-1.01.52-1.416a1.55 1.55 0 0 1 1.018-.393c1.402 0 1.878 1.947 1.878 2.967 0 .452-.068.915-.34 1.286zm-1.396.935c1.844 0 2.871-1.443 2.871-2.807 0-1.397-1.04-2.727-2.7-2.727-1.719 0-2.928 1.295-2.928 2.808 0 1.296.96 2.726 2.757 2.726z"/></g><g><path fill="#fff" d="M32.54 19.676l-1.521.354c-.617.098-1.17.185-1.756.185-2.935 0-4.053-2.195-4.053-3.912 0-2.098 1.584-4.043 4.297-4.043.575 0 1.127.086 1.63.225.797.228 1.17.508 1.403.673l-.884.853-.372.084.265-.43c-.36-.357-1.02-1.016-2.276-1.016-1.679 0-2.945 1.296-2.945 3.189 0 2.033 1.446 3.945 3.765 3.945.681 0 1.032-.14 1.35-.269v-1.743l-1.606.088.851-.465h2.255l-.276.27c-.074.064-.084.086-.105.172a7.847 7.847 0 0 0-.022.522v1.318"/></g><g><path fill="#fff" d="M64.649 17.356c0 1.319-.673 2.332-1.865 2.332-.74 0-1.449-.616-1.757-1.135v-2.407c.308-.518 1.016-1.112 1.757-1.112 1.192 0 1.865 1.004 1.865 2.322zm-3.636 1.776c.43.611 1.099 1.001 1.846 1.001 1.42 0 2.377-1.113 2.377-2.827 0-1.726-.956-2.816-2.377-2.816a2.27 2.27 0 0 0-1.846.98v-.846h-.573v7.426h.573z"/></g><g><path fill="#fff" d="M66.02 12.56h.587v7.461h-.587z"/></g><g><path fill="#fff" d="M73.001 21.537c.122.056.332.09.464.09.35 0 .594-.145.813-.657l.418-.959-2.256-5.421h.639l1.935 4.698 1.917-4.698h.648l-2.752 6.56c-.285.675-.735 1-1.352 1a2.24 2.24 0 0 1-.572-.078l.098-.535"/></g><g><path fill="#fff" d="M69.333 19.629c-.375 0-.67-.094-.884-.284a.942.942 0 0 1-.323-.745c0-.329.17-.611.507-.845.335-.234.762-.35 1.277-.35h1.348v1.044c-.127.345-.37.63-.726.849-.36.22-.71.33-1.2.33zm2.045.388h.664a3.572 3.572 0 0 1-.148-1.093v-2.666c0-.571-.192-1.008-.575-1.31-.383-.305-.89-.458-1.519-.458-.63 0-1.142.155-1.533.464-.392.31-.577.668-.555 1.076l.012.03h.59c0-.304.133-.555.4-.758.268-.198.62-.3 1.054-.3.475 0 .842.111 1.103.332.26.22.39.525.39.912v.671h-1.343c-.72 0-1.302.15-1.752.453-.45.3-.676.694-.676 1.178 0 .485.156.869.466 1.152.31.283.746.423 1.307.423.466 0 .806-.095 1.164-.289a2.29 2.29 0 0 0 .834-.73c0 .144.01.285.028.422.021.138.05.303.089.49z"/></g></g><g><path fill="#fff" d="M51.946 7.641c-.096.048-.237.072-.423.072h-.59v-.63h.673c.16 0 .281.024.362.07.081.047.122.123.122.227 0 .126-.048.213-.144.261zm-.353 1.227h-.66v-.74h.645c.197 0 .344.026.443.079.098.053.147.142.147.268 0 .262-.192.393-.575.393zm.027-2.205H50.38V9.28h1.246c.359 0 .632-.067.82-.2a.658.658 0 0 0 .282-.571.54.54 0 0 0-.16-.405c-.107-.104-.262-.168-.463-.192v-.019c.36-.064.54-.251.54-.56 0-.447-.341-.67-1.024-.67zm-4.878.639c.104-.155.271-.232.502-.232.44 0 .661.299.661.897 0 .604-.219.906-.656.906-.442 0-.663-.302-.663-.906 0-.29.052-.51.156-.665zm1.414-.321c-.22-.244-.52-.366-.897-.366-.395 0-.701.12-.918.358-.217.238-.326.57-.326.994 0 .273.05.512.151.719.1.207.245.365.432.476.187.11.403.165.647.165.39 0 .694-.12.913-.36.219-.24.328-.573.328-1 0-.414-.11-.742-.33-.986zm-5.117-.318V9.28h.555V8.151h1.23v1.13h.554V6.662h-.555v1.05h-1.23v-1.05zm-3.075 0V9.28h.557V7.103h1.176V9.28h.56V6.663zm-1.94 2.617l-.097.246c-.108.311-.296.466-.564.466-.107 0-.202-.009-.285-.028v.44c.116.027.236.04.358.04.474 0 .812-.272 1.015-.816l1.117-2.965h-.6c-.362 1.052-.562 1.64-.6 1.764-.037.124-.063.23-.077.316h-.02a2.822 2.822 0 0 0-.16-.597l-.53-1.483h-.605zm-3.41-2.617v.435h.85V9.28h.556V7.098h.85v-.435zm-.636 2.627c.112-.026.218-.068.317-.126V8.68c-.22.123-.454.185-.7.185-.218 0-.383-.074-.495-.222-.113-.147-.169-.368-.169-.661 0-.601.226-.902.677-.902.153 0 .347.046.581.137l.168-.447a1.74 1.74 0 0 0-.744-.154c-.406 0-.716.119-.93.355-.216.237-.323.575-.323 1.016 0 .432.103.764.308.995.205.23.505.346.9.346a1.9 1.9 0 0 0 .41-.037zm-3.842-1.988c.104-.155.273-.232.506-.232.444 0 .665.299.665.897 0 .604-.22.906-.66.906-.446 0-.668-.302-.668-.906 0-.29.052-.51.157-.665zm1.412-.321c-.22-.244-.52-.366-.897-.366-.395 0-.7.12-.918.358-.217.238-.325.57-.325.994 0 .273.05.512.15.719.101.207.245.365.433.476.187.11.402.165.646.165.39 0 .695-.12.914-.36.218-.24.328-.573.328-1 0-.414-.11-.742-.33-.986zm-3.483-.671v2.475h-1.504c.183-.352.345-.763.487-1.234a6.57 6.57 0 0 0 .267-1.241zM25.7 10.234h.543V9.28h2.28v.954h.542v-1.44h-.446V5.82h-1.781a7.811 7.811 0 0 1-.298 1.567c-.154.52-.345.99-.573 1.408H25.7z"/></g></g></g></g></svg>