<svg xmlns="http://www.w3.org/2000/svg" width="36" height="36" viewBox="0 0 36 36"><g><g><path fill="#fff" d="M7.324 15.405c.134.154.2.35.185.554a.759.759 0 0 1-.26.524.76.76 0 0 1-1.078-.076.758.758 0 0 1-.186-.554.764.764 0 0 1 1.34-.448m17.015-2.675a.755.755 0 0 1-.555.185.758.758 0 0 1-.524-.26.76.76 0 0 1 .075-1.08.762.762 0 0 1 1.079.076c.134.154.2.351.185.555a.759.759 0 0 1-.26.524m-11.416-1.358a.76.76 0 0 1-.815.71.76.76 0 0 1-.524-.262.758.758 0 0 1-.185-.554.76.76 0 0 1 .815-.71c.204.014.39.107.524.261.134.154.2.35.185.555m16.281 7.802a.761.761 0 0 1-.448-1.34.764.764 0 1 1 .448 1.34M8.462 21.411c.204.014.39.107.524.262.134.154.2.35.185.554a.76.76 0 0 1-.26.524.759.759 0 0 1-.555.186.758.758 0 0 1-.523-.262.76.76 0 0 1 .63-1.264M36 18.003c0 8.631-6.073 15.842-14.178 17.596v-9.21c0-.056.022-.108.062-.148l1.85-1.85c.04-.04.092-.062.148-.062h2.042a1.736 1.736 0 0 0 3.4-.366 1.728 1.728 0 0 0-.422-1.26 1.728 1.728 0 0 0-1.19-.595 1.729 1.729 0 0 0-1.261.423c-.254.22-.435.505-.528.825h-2.386a.347.347 0 0 0-.246.101l-2.34 2.34a.347.347 0 0 0-.101.246v9.738c-.773.123-1.562.198-2.363.219V24.291c0-.055.022-.108.06-.147l5.184-5.184a.205.205 0 0 1 .147-.061h3.566a.21.21 0 0 1 .194.136c.243.628.83 1.064 1.5 1.11.461.034.913-.12 1.26-.421.351-.305.562-.728.594-1.19a1.727 1.727 0 0 0-.422-1.262 1.735 1.735 0 0 0-2.933.519.207.207 0 0 1-.194.134h-2.91a.209.209 0 0 1-.209-.208v-3.748c0-.086.053-.162.134-.193a1.727 1.727 0 0 0 1.113-1.502 1.725 1.725 0 0 0-.422-1.261 1.726 1.726 0 0 0-1.19-.594 1.726 1.726 0 0 0-1.261.422c-.35.305-.561.728-.593 1.19a1.73 1.73 0 0 0 1.11 1.743.209.209 0 0 1 .136.194v3.909a.209.209 0 0 1-.06.147l-4.686 4.686a.069.069 0 0 1-.076.015.068.068 0 0 1-.042-.064V9.799c0-.087.052-.163.134-.194a1.728 1.728 0 0 0 1.113-1.502 1.728 1.728 0 0 0-.423-1.261 1.726 1.726 0 0 0-1.19-.593 1.728 1.728 0 0 0-1.261.422c-.35.304-.56.727-.593 1.19a1.73 1.73 0 0 0 1.11 1.742.208.208 0 0 1 .136.195v10.36c0 .042-.032.06-.042.063a.068.068 0 0 1-.076-.015l-4.686-4.686a.211.211 0 0 1-.06-.147v-2.237c0-.087.052-.163.133-.194a1.727 1.727 0 0 0 1.113-1.502 1.729 1.729 0 0 0-.422-1.262 1.726 1.726 0 0 0-1.19-.593 1.73 1.73 0 0 0-1.26.422c-.351.305-.562.728-.594 1.19a1.73 1.73 0 0 0 1.11 1.743.209.209 0 0 1 .137.194v2.077a.209.209 0 0 1-.209.209H8.563a.206.206 0 0 1-.194-.134 1.727 1.727 0 0 0-1.501-1.113 1.723 1.723 0 0 0-1.261.422 1.725 1.725 0 0 0-.594 1.206 1.74 1.74 0 0 0 .47 1.283c.328.352.783.556 1.251.56h.015a1.732 1.732 0 0 0 1.62-1.116.206.206 0 0 1 .194-.135h3.557a.21.21 0 0 1 .147.061l5.185 5.186c.04.039.061.093.061.148V36a18.05 18.05 0 0 1-2.362-.219V24.375a.346.346 0 0 0-.102-.246l-2.34-2.34a.345.345 0 0 0-.245-.102h-2.239a.206.206 0 0 1-.194-.134A1.727 1.727 0 0 0 8.53 20.44a1.729 1.729 0 0 0-1.26.422 1.724 1.724 0 0 0-.595 1.207c-.028.464.143.932.47 1.283.328.352.784.556 1.25.56h.016a1.732 1.732 0 0 0 1.62-1.116.207.207 0 0 1 .194-.135h1.894c.056 0 .108.021.147.06l1.85 1.851c.04.04.061.093.061.148v10.879C6.073 33.845 0 26.634 0 18.003 0 8.06 8.059 0 18 0s18 8.06 18 18.003m-8.463 6.602a.761.761 0 0 1-.709-.816.76.76 0 0 1 .816-.71.76.76 0 0 1 .71.817.759.759 0 0 1-.262.523.756.756 0 0 1-.555.186m-8.784-16.57a.764.764 0 0 1-.81.71.763.763 0 0 1-.705-.816.761.761 0 0 1 .81-.71.762.762 0 0 1 .705.816"/></g></g></svg>