<svg xmlns="http://www.w3.org/2000/svg" width="129" height="37" viewBox="0 0 129 37"><g><g><g><path fill="none" stroke="#fff" stroke-miterlimit="50" d="M1 17.58c0-9.389 7.611-17 17-17h93c9.389 0 17 7.611 17 17v1c0 9.389-7.611 17-17 17H18c-9.389 0-17-7.611-17-17z"/></g><g><g><path fill="#fff" d="M35.943 16.423c-.024-2.575 2.111-3.828 2.209-3.886-1.21-1.76-3.083-2.001-3.742-2.02-1.574-.166-3.1.94-3.902.94-.818 0-2.053-.924-3.384-.897-1.712.026-3.314 1.016-4.193 2.554-1.813 3.134-.46 7.74 1.276 10.274.87 1.241 1.885 2.626 3.214 2.577 1.3-.053 1.786-.828 3.355-.828 1.555 0 2.011.828 3.367.796 1.395-.02 2.274-1.245 3.113-2.498 1.004-1.42 1.407-2.823 1.423-2.895-.032-.01-2.71-1.03-2.736-4.117"/></g><g><path fill="#fff" d="M33.378 8.847c.7-.873 1.178-2.061 1.045-3.267-1.012.045-2.278.7-3.007 1.553-.645.753-1.221 1.986-1.072 3.147 1.137.084 2.304-.573 3.034-1.433"/></g></g><g><g><path fill="#fff" d="M50.846 22H48.03l.872-2.776a86.5 86.5 0 0 0 .497-2.004h.032c.258 1.051.435 1.72.529 2.004zm3.064 4.433L50.52 15.8h-2.085L45.06 26.433h1.742l.933-3.123h3.406l.98 3.123z"/></g><g><path fill="#fff" d="M60.87 22.558c0 .81-.178 1.461-.53 1.955-.353.493-.846.741-1.48.741-.54 0-.978-.192-1.315-.576-.338-.384-.507-.854-.507-1.41v-1.279c0-.135.026-.307.079-.517.103-.452.324-.817.661-1.096a1.733 1.733 0 0 1 1.129-.418c.612 0 1.1.253 1.464.757.332.483.498 1.098.498 1.843zm1.708-.06c0-1.168-.299-2.11-.894-2.826-.595-.715-1.34-1.072-2.231-1.072-1.14 0-1.99.458-2.55 1.374h-.032l-.094-1.216H55.3c.041.862.062 1.701.062 2.52v8.255h1.68V25.51c.437.727 1.157 1.089 2.158 1.089.927 0 1.705-.337 2.33-1.01.699-.757 1.048-1.788 1.048-3.092z"/></g><g><path fill="#fff" d="M69.557 22.558c0 .81-.177 1.461-.53 1.955-.35.493-.843.741-1.477.741-.54 0-.978-.193-1.315-.576-.336-.384-.505-.854-.505-1.41v-1.279c0-.135.028-.307.079-.517.103-.452.324-.817.66-1.096a1.736 1.736 0 0 1 1.129-.418c.611 0 1.098.253 1.46.757.333.483.499 1.098.499 1.843zm1.711-.06c0-1.168-.299-2.11-.893-2.826-.596-.715-1.341-1.072-2.232-1.072-1.142 0-1.992.458-2.55 1.374h-.032l-.094-1.216H63.99c.041.862.062 1.701.062 2.52v8.255h1.68V25.51c.438.727 1.158 1.089 2.158 1.089.928 0 1.705-.337 2.33-1.01.7-.757 1.048-1.788 1.048-3.092z"/></g><g><path fill="#fff" d="M80.992 23.448c0 .905-.311 1.64-.932 2.209-.682.62-1.635.93-2.856.93-1.128 0-2.032-.22-2.714-.662l.388-1.42a4.63 4.63 0 0 0 2.426.664c.634 0 1.126-.146 1.477-.434.353-.29.53-.676.53-1.159 0-.432-.146-.795-.436-1.09-.29-.293-.771-.568-1.445-.819-1.836-.694-2.754-1.71-2.754-3.045 0-.873.324-1.587.971-2.145.648-.558 1.506-.837 2.574-.837.954 0 1.75.169 2.38.505l-.421 1.389c-.594-.326-1.265-.49-2.015-.49-.592 0-1.057.148-1.39.442-.279.263-.421.584-.421.964 0 .42.161.768.483 1.04.28.253.788.527 1.524.82.903.37 1.565.8 1.99 1.294.428.493.64 1.11.64 1.844"/></g><g><path fill="#fff" d="M86.553 20.04H84.7v3.723c0 .947.327 1.419.98 1.419.3 0 .55-.026.746-.08l.047 1.294c-.331.126-.767.189-1.305.189-.664 0-1.182-.206-1.557-.616-.373-.41-.56-1.099-.56-2.067v-3.865H81.95V18.76h1.102v-1.404l1.65-.505v1.909h1.85v1.281"/></g><g><path fill="#fff" d="M93.153 22.575c0 .705-.155 1.311-.463 1.828-.365.617-.868.929-1.51.929-.657 0-1.163-.305-1.526-.915-.302-.502-.45-1.106-.45-1.81 0-.724.148-1.337.45-1.842.35-.609.868-.913 1.54-.913.652 0 1.157.304 1.509.913.3.505.45 1.108.45 1.81zm1.74-.039c0-1.147-.32-2.081-.964-2.806-.675-.745-1.565-1.12-2.675-1.12-1.151 0-2.066.38-2.745 1.136-.678.757-1.019 1.73-1.019 2.918 0 1.135.33 2.077.988 2.823.658.746 1.541 1.12 2.652 1.12 1.15 0 2.074-.39 2.768-1.168.664-.757.996-1.724.996-2.903z"/></g><g><path fill="#fff" d="M100.356 20.256a2.884 2.884 0 0 0-.53-.046c-.59 0-1.047.224-1.369.678-.28.4-.419.905-.419 1.514v4.023h-1.68v-5.252c0-.883-.016-1.69-.048-2.414h1.463l.061 1.467h.047c.178-.504.457-.91.84-1.215a2.01 2.01 0 0 1 1.213-.411c.155 0 .296.012.42.031l.002 1.625"/></g><g><path fill="#fff" d="M106.256 21.79l-3.497-.002c.05-.513.217-.957.497-1.325.34-.464.787-.695 1.337-.695.599 0 1.046.237 1.337.712.228.369.338.803.326 1.31zm1.602.44c0-.955-.223-1.76-.668-2.41-.559-.82-1.384-1.23-2.473-1.23-1.11 0-1.99.41-2.643 1.23-.624.767-.934 1.73-.934 2.886 0 1.176.336 2.116 1.003 2.815.67.698 1.59 1.048 2.761 1.048.974 0 1.82-.158 2.535-.473l-.264-1.183c-.612.243-1.292.363-2.038.363-.674 0-1.223-.18-1.648-.535-.467-.4-.712-.98-.73-1.737h5.037c.042-.21.062-.468.062-.773z"/></g></g><g><g><path fill="#fff" d="M48.89 9.961h-1.382l.428-1.367c.114-.435.19-.762.244-.987h.016c.13.52.214.846.26.987zm1.505 2.175L48.729 6.91h-1.022l-1.657 5.226h.855l.459-1.535h1.671l.481 1.535z"/></g><g><path fill="#fff" d="M54.536 8.37l-1.405 3.768h-.802L50.97 8.37h.886l.634 1.993c.107.333.198.65.266.953h.023c.062-.271.153-.589.267-.953l.626-1.993h.864"/></g><g><path fill="#fff" d="M57.41 10.259v.581c0 .442-.389.767-.809.767-.328 0-.564-.193-.564-.588 0-.535.457-.76 1.374-.76zm.116 1.876l.741.001a5.683 5.683 0 0 1-.053-.9V9.85c0-1.04-.49-1.559-1.458-1.559-.505 0-.932.109-1.276.326l.168.55c.282-.186.603-.28.97-.28.51 0 .77.25.77.745v.07c-1.374 0-2.168.481-2.168 1.411 0 .636.474 1.109 1.137 1.109.466 0 .833-.17 1.084-.52h.023z"/></g><g><path fill="#fff" d="M59.723 8.368h1.45v3.771h-1.45zM59.56 7.25c0-.289.39-.5.888-.5.497 0 .9.211.887.5 0 .305-.376.508-.915.508-.483 0-.86-.219-.86-.508z"/></g><g><path fill="#fff" d="M61.94 6.64h.824v5.497h-.824z"/></g><g><path fill="#fff" d="M66.15 10.26v.581c0 .442-.389.767-.809.767-.328 0-.564-.193-.564-.589 0-.534.457-.76 1.374-.76zm.116 1.876h.74a5.913 5.913 0 0 1-.052-.9V9.85c0-1.04-.49-1.559-1.46-1.559-.503 0-.93.109-1.274.326l.168.551c.282-.186.603-.28.97-.28.51 0 .77.25.77.745v.07c-1.374 0-2.168.48-2.168 1.41 0 .637.474 1.11 1.137 1.11.466 0 .833-.17 1.084-.52h.023z"/></g><g><path fill="#fff" d="M70.134 8.95c.588 0 .97.52.971 1.28 0 .814-.368 1.325-.986 1.325-.503 0-.893-.426-.893-.946V9.95c0-.581.434-1 .908-1zm.168 3.272c.946 0 1.642-.853 1.642-2.023 0-1.13-.626-1.907-1.52-1.907-.542 0-.939.21-1.183.628h-.015V6.64H68.4v4.481c0 .372-.008.714-.03 1.016h.702l.047-.582h.016c.252.442.64.667 1.167.667z"/></g><g><path fill="#fff" d="M73.16 6.64h.824v5.497h-.824z"/></g><g><path fill="#fff" d="M77.705 9.854h-1.71c.055-.574.426-.992.897-.992.524 0 .813.41.813.992zm.765.597c.024-.1.03-.233.028-.38 0-1.078-.597-1.791-1.542-1.791-1.053 0-1.756.868-1.756 2.024 0 1.154.687 1.899 1.848 1.899.48 0 .893-.078 1.244-.233l-.129-.581a2.746 2.746 0 0 1-1 .178c-.687 0-1.151-.403-1.168-1.116z"/></g><g><path fill="#fff" d="M83.498 8.902c.58 0 .961.574.961 1.34 0 .753-.39 1.358-.969 1.358-.58 0-.97-.566-.97-1.341 0-.791.382-1.357.978-1.357zm-.032 3.319c1.108 0 1.85-.822 1.85-2 0-1.148-.72-1.931-1.787-1.931-1.132 0-1.849.83-1.849 1.993 0 1.116.702 1.938 1.786 1.938z"/></g><g><path fill="#fff" d="M89.751 12.136h-.823V9.973c0-.667-.252-1-.749-1-.488 0-.825.426-.825.922v2.241h-.823v-2.69c0-.334-.009-.691-.031-1.079h.725l.039.582h.023c.22-.403.671-.659 1.176-.659.777 0 1.288.605 1.288 1.59v2.256"/></g><g><path fill="#fff" d="M95.146 8.997h-.907v1.83c0 .465.16.698.48.698.145 0 .268-.016.367-.04l.022.637a1.81 1.81 0 0 1-.64.093c-.65 0-1.038-.364-1.038-1.318v-1.9h-.54v-.628h.54v-.69l.81-.249v.938h.906v.629"/></g><g><path fill="#fff" d="M99.512 12.137h-.825V9.989c0-.674-.253-1.015-.748-1.015-.427 0-.824.295-.824.891v2.272h-.825V6.64h.825v2.264h.016c.259-.411.634-.613 1.115-.613.785 0 1.266.62 1.266 1.605v2.24"/></g><g><path fill="#fff" d="M102.954 9.854h-1.708c.054-.574.426-.992.896-.992.524 0 .812.41.812.992zm.766.597c.023-.1.03-.233.028-.38 0-1.078-.597-1.791-1.543-1.791-1.053 0-1.755.868-1.755 2.024 0 1.154.687 1.899 1.847 1.899.481 0 .894-.078 1.245-.233l-.13-.581c-.295.116-.63.178-.999.178-.687 0-1.151-.403-1.167-1.116z"/></g></g></g></g></svg>