<svg xmlns="http://www.w3.org/2000/svg" width="129" height="37" viewBox="0 0 129 37"><defs><linearGradient id="eq3aa" x1="27.15" x2="33.54" y1="14.42" y2="23.97" gradientUnits="userSpaceOnUse"><stop offset="0" stop-color="#ff177b"/><stop offset="1" stop-color="#ffec73"/></linearGradient><linearGradient id="eq3ab" x1="17.62" x2="5.15" y1="4.47" y2="31.45" gradientUnits="userSpaceOnUse"><stop offset="0" stop-color="#064aa2"/><stop offset="1" stop-color="#63ffd4"/></linearGradient><linearGradient id="eq3ae" x1="31.1" x2="15.78" y1="22" y2="31.33" gradientUnits="userSpaceOnUse"><stop offset="0" stop-color="#ff4521"/><stop offset="1" stop-color="#8a33db"/></linearGradient><linearGradient id="eq3af" x1="17.35" x2="25.19" y1="4.86" y2="25.62" gradientUnits="userSpaceOnUse"><stop offset="0" stop-color="#00a3b5"/><stop offset="1" stop-color="#d6ffa1"/></linearGradient><clipPath id="eq3ac"><path d="M26.908 21.882l-9.552-9.222c-.222.053-.356.223-.356.508v17.646c0 .242.096.386.214.435z"/></clipPath><clipPath id="eq3ad"><path d="M17.603 31.195l5.52-3.09 2.439-1.376 4.015-2.203-2.673-2.646-9.694 9.369c.108.035.298.016.447-.06"/></clipPath><clipPath id="eq3ag"><path d="M17.864 12.736c-.184-.1-.366-.129-.514-.088l9.56 9.235 2.644-2.55-3.986-2.249-6.026-3.401z"/></clipPath></defs><g><g><g><path fill="none" stroke="#fff" stroke-miterlimit="50" d="M1 17.58c0-9.389 7.611-17 17-17h93c9.389 0 17 7.611 17 17v1c0 9.389-7.611 17-17 17H18c-9.389 0-17-7.611-17-17z"/></g><g><g><path fill="url(#eq3aa)" d="M25.563 17.084l-7.69-4.34c-.428-.242-.853-.095-.853.408V30.834c0 .378.304.541.675.332l7.868-4.441 1.528-.862 2.458-1.387 3.833-2.163c.45-.254.406-.602.027-.802-.38-.2-3.86-2.177-3.86-2.177z"/></g><g><g><g><path fill="url(#eq3ab)" d="M26.908 21.882l-9.552-9.222c-.222.053-.356.223-.356.508v17.646c0 .242.096.386.214.435z"/></g></g><g><g/><g clip-path="url(#eq3ac)"/></g></g><g><g><g/><g clip-path="url(#eq3ad)"><path fill="url(#eq3ae)" d="M25.554 17.09c-.014.033-7.275-4.074-7.699-4.284-.43-.273-.855-.127-.855.363v17.718c0 .39.304.553.642.363.403-.229 7.898-4.469 7.912-4.502l3.991-2.251c-.02.031 3.36-1.882 3.778-2.106.482-.284.438-.632.071-.799-.391-.234-3.87-2.215-3.849-2.25z"/></g></g></g><g><g><g><path fill="url(#eq3af)" d="M17.864 12.736c-.184-.1-.366-.129-.514-.088l9.56 9.235 2.644-2.55-3.986-2.249-6.026-3.401z"/></g></g><g><g/><g clip-path="url(#eq3ag)"/></g></g></g><g><g><path fill="#fff" d="M80.74 19.947l-2.886 1.332c-.016-.303-.048-.605-.048-.89 0-1.821 1.189-2.346 1.822-2.346.856 0 1.572.778 1.572 1.452 0 .234-.157.335-.46.452zm2.304 4.27c.074-.076-.03-.02-.03-.02-.518.268-1.083.527-1.845.527-1.524 0-2.904-1.238-3.304-3.367l1.235-.1 3.771-1.59c-.115-.386-.322-1.105-1.123-1.658-.482-.318-1.075-.469-1.652-.469-1.652 0-3.676 1.273-3.676 3.87 0 1.254.498 2.693 1.636 3.53.82.619 1.623.653 2.135.653.482 0 1.024-.063 1.557-.316.175-.083.352-.202.529-.303z"/></g><g><path fill="#fff" d="M75.173 24.122c0 .649.11.75.636.8.274.034.547.05.817.083l-.591.368h-2.818c.37-.501.433-.551.433-.885v-.373l-.006-9.932H72.4l1.198-.603h2.286c-.495.3-.644.483-.707 1.067l-.004 9.475"/></g><g><path fill="#fff" d="M70.132 22.548c-.252.264-.68.467-1.079.467-1.365 0-1.986-1.852-1.986-2.968 0-.434.08-.884.35-1.232.253-.335.7-.552 1.111-.552 1.321 0 2.003 1.868 2.003 3.067 0 .302-.032.833-.4 1.218zm-.458 3.205c1.218.922 1.748 1.38 1.748 2.249 0 1.055-.819 1.839-2.36 1.839-1.717 0-2.826-.87-2.826-2.078 0-1.21 1.027-1.617 1.383-1.755.672-.24 1.54-.273 1.685-.273.159 0 .238 0 .37.018zm1.13-7.39h.99l1.023-.603h-3.289c-.862 0-1.947.135-2.857.92a3.057 3.057 0 0 0-1.023 2.237c0 1.303.957 2.624 2.65 2.624.16 0 .336-.018.51-.035-.078.199-.16.368-.16.65 0 .519.256.836.48 1.139-.718.05-2.058.134-3.048.767-.944.584-1.23 1.435-1.23 2.037 0 1.236 1.118 2.388 3.431 2.388 2.746 0 4.199-1.584 4.199-3.155 0-1.153-.64-1.721-1.34-2.34l-.577-.466c-.173-.15-.414-.35-.414-.72 0-.364.24-.6.447-.817.672-.552 1.339-1.135 1.339-2.372 0-1.269-.765-1.938-1.132-2.253z"/></g><g><path fill="#fff" d="M62.841 24.232a2.02 2.02 0 0 1-1.638.858c-1.945 0-2.729-2.748-2.729-4.415 0-.727.112-1.47.739-2.06a2.177 2.177 0 0 1 1.447-.572c1.99 0 2.664 2.833 2.664 4.319 0 .656-.094 1.33-.483 1.87zm-1.988 1.361c2.609 0 4.064-2.1 4.064-4.085 0-2.032-1.473-3.968-3.824-3.968-2.433 0-4.143 1.884-4.143 4.087 0 1.885 1.36 3.967 3.903 3.967z"/></g><g><path fill="#fff" d="M54.322 24.232c-.37.539-1.01.858-1.637.858-1.943 0-2.73-2.748-2.73-4.415 0-.727.11-1.47.739-2.06a2.17 2.17 0 0 1 1.444-.572c1.99 0 2.666 2.833 2.666 4.319 0 .656-.096 1.33-.482 1.87zm-1.99 1.361c2.61 0 4.065-2.1 4.065-4.085 0-2.032-1.472-3.968-3.823-3.968-2.433 0-4.144 1.884-4.144 4.087 0 1.885 1.359 3.967 3.903 3.967z"/></g><g><path fill="#fff" d="M47.376 25.092l-2.153.515c-.873.144-1.656.27-2.486.27-4.154 0-5.737-3.194-5.737-5.694 0-3.053 2.243-5.883 6.083-5.883a8.45 8.45 0 0 1 2.307.328c1.129.33 1.657.74 1.986.978l-1.25 1.242-.528.123.376-.626c-.51-.52-1.446-1.48-3.223-1.48-2.376 0-4.168 1.888-4.168 4.642 0 2.958 2.046 5.74 5.329 5.74.964 0 1.46-.202 1.912-.39V22.32l-2.275.128 1.206-.676h3.191l-.39.392c-.105.094-.12.126-.15.25-.015.144-.03.6-.03.76v1.918"/></g><g><path fill="#fff" d="M92.838 21.703c0 1.916-.952 3.387-2.64 3.387-1.048 0-2.05-.894-2.487-1.648v-3.496c.436-.752 1.439-1.615 2.487-1.615 1.688 0 2.64 1.459 2.64 3.372zm-5.147 2.592c.608.89 1.556 1.457 2.614 1.457 2.01 0 3.364-1.62 3.364-4.114 0-2.511-1.354-4.098-3.364-4.098-1.121 0-2.086.63-2.614 1.426v-1.23h-.811v10.806h.81z"/></g><g><path fill="#fff" d="M94.78 14.74h.831v10.858h-.831z"/></g><g><path fill="#fff" d="M104.654 27.79c.174.08.47.13.657.13.496 0 .841-.211 1.151-.956l.592-1.394-3.194-7.89h.904l2.74 6.837 2.713-6.837h.917l-3.895 9.545c-.404.984-1.04 1.457-1.914 1.457a3.09 3.09 0 0 1-.81-.114l.14-.778"/></g><g><path fill="#fff" d="M99.468 25.018c-.53 0-.947-.137-1.251-.413-.304-.273-.456-.634-.456-1.085 0-.477.24-.889.717-1.228.474-.34 1.078-.51 1.807-.51h1.91v1.519c-.18.502-.524.917-1.029 1.235-.508.32-1.006.482-1.698.482zm2.895.565h.94a5.325 5.325 0 0 1-.209-1.59v-3.88c0-.831-.272-1.466-.813-1.906-.542-.444-1.262-.667-2.15-.667-.893 0-1.617.226-2.17.676-.556.45-.817.971-.787 1.565l.017.043h.835c0-.441.19-.807.566-1.102.38-.29.878-.438 1.493-.438.672 0 1.191.163 1.561.484.368.321.553.764.553 1.327v.977h-1.902c-1.02 0-1.843.219-2.48.659-.637.437-.957 1.01-.957 1.715 0 .706.22 1.264.66 1.676.44.412 1.056.615 1.85.615.66 0 1.141-.138 1.647-.42.506-.28.902-.635 1.182-1.061 0 .208.014.413.039.613.03.2.071.441.125.714z"/></g></g><g><g><path fill="#fff" d="M37 8.178c0-1.538 1.19-2.528 2.67-2.528.991 0 1.64.455 2.044 1.011l-.724.404a1.662 1.662 0 0 0-1.32-.652c-1.007 0-1.755.732-1.755 1.765 0 1.018.748 1.766 1.755 1.766.519 0 .976-.227 1.205-.44V8.75h-1.526v-.755h2.411v1.824a2.798 2.798 0 0 1-2.09.894c-1.48 0-2.67-1.003-2.67-2.535"/></g><g><path fill="#fff" d="M42.92 10.634V5.72h3.534v.76h-2.63v1.266H46.4v.76h-2.575v1.37h2.629v.758H42.92"/></g><g><path fill="#fff" d="M48.858 10.634V6.48H47.32V5.72h3.967v.76h-1.538v4.154h-.891"/></g><g><path fill="#fff" d="M54.46 5.72h.865v4.914h-.865z"/></g><g><path fill="#fff" d="M57.798 10.634V6.48H56.26V5.72h3.967v.76h-1.538v4.154h-.89"/></g><g><path fill="#fff" d="M67.505 8.144c0 .995-.666 1.75-1.692 1.75-1.035 0-1.694-.755-1.694-1.75 0-1.002.66-1.75 1.694-1.75 1.026 0 1.692.748 1.692 1.75zm-4.325.038c0 1.46 1.088 2.531 2.633 2.531 1.535 0 2.632-1.07 2.632-2.531 0-1.46-1.097-2.532-2.632-2.532-1.545 0-2.633 1.071-2.633 2.532z"/></g><g><path fill="#fff" d="M73 10.634L70.35 7.12v3.514h-.89V5.72h.913l2.596 3.404V5.72h.89v4.914H73"/></g></g></g></g></svg>