<svg xmlns="http://www.w3.org/2000/svg" width="33" height="29" viewBox="0 0 33 29"><defs><linearGradient id="y2iga" x1="0" x2="33" y1="14.5" y2="14.5" gradientUnits="userSpaceOnUse"><stop offset="0" stop-color="#f26a35"/><stop offset="1" stop-color="#ee3048"/></linearGradient></defs><g><g><path fill="url(#y2iga)" d="M16.549 3.086a3.315 3.315 0 0 0 2.202-.842C21.279.004 24.945-.69 28.13.761 31.212 2.166 33 5.203 33 8.416c.003.37-.202.713-.534.89a1.051 1.051 0 0 1-1.057-.037 28.455 28.455 0 0 0-14.826-4.113h-.155a28.42 28.42 0 0 0-14.84 4.22c-.317.196-.717.21-1.046.036a1.006 1.006 0 0 1-.54-.875C-.05 5.28 1.748 2.184 4.871.761c3.184-1.45 6.85-.753 9.378 1.483.598.538 1.38.838 2.192.842zm-14.842 8.74c8.883-6.07 20.693-6.107 29.615-.09.45.303.581.896.298 1.353a33.559 33.559 0 0 1-2.083 2.89 1.045 1.045 0 0 1-1.396.212c-7.001-4.702-16.252-4.671-23.22.076-.45.31-1.07.22-1.408-.206-.847-1.087-1.577-2.07-2.089-2.881a.995.995 0 0 1 .283-1.354zm4.252 6.673c.042-.284.206-.537.45-.696 6.112-4.01 14.09-4.042 20.235-.08a.994.994 0 0 1 .225 1.492c-.748.872-1.531 1.762-2.307 2.64-.33.37-.884.454-1.312.198a12.958 12.958 0 0 0-13.434.067c-.429.262-.988.18-1.32-.194-.78-.875-1.559-1.763-2.307-2.635a.992.992 0 0 1-.23-.792zm7.971 9.35c-1.95-2.075-.523-5.467 2.361-5.544h.362c2.913.017 4.407 3.422 2.438 5.518l-.103.11A3.422 3.422 0 0 1 16.498 29c-.947 0-1.85-.387-2.492-1.068z"/></g></g></svg>