<svg width="574" height="501" viewBox="0 0 574 501" fill="none" xmlns="http://www.w3.org/2000/svg">
<path fill-rule="evenodd" clip-rule="evenodd" d="M282.324 0.430086C326.346 3.20574 365.808 26.034 402.049 51.0832C436.255 74.7262 458.987 108.817 485.454 140.832C516.982 178.968 565.307 208.828 572.83 257.661C580.444 307.092 549.339 353.496 524.946 397.204C500.245 441.462 503.236 467.841 456.24 487.138C409.562 506.304 332.597 501.454 282.324 496.824C237.296 492.678 191.583 503.184 149.329 487.138C103.245 469.638 58.2369 443.229 31.864 401.713C5.14413 359.651 -6.43507 306.433 3.55398 257.661C13.0453 211.319 58.1663 183.223 84.6525 143.971C109.039 107.829 118.192 61.0647 153.518 35.4128C190.103 8.84594 237.141 -2.41883 282.324 0.430086Z" fill="#E8F0FB"/>
</svg>
