<svg width="606" height="531" viewBox="0 0 606 531" fill="none" xmlns="http://www.w3.org/2000/svg">
<path fill-rule="evenodd" clip-rule="evenodd" d="M298.08 1.45412C344.402 4.38491 385.927 28.489 424.062 54.9382C460.055 79.9025 483.975 115.898 511.826 149.702C545.002 189.971 595.853 221.499 603.768 273.061C611.781 325.254 579.05 374.253 553.382 420.403C527.39 467.135 530.538 494.988 481.085 515.363C431.968 535.6 350.98 530.479 298.08 525.591C250.698 521.213 202.596 532.306 158.133 515.363C109.641 496.885 62.2806 469 34.5294 425.164C6.41299 380.751 -5.7714 324.559 4.73973 273.061C14.7271 224.13 62.2064 194.463 90.0768 153.017C115.738 114.855 125.37 65.4775 162.541 38.392C201.039 10.3403 250.535 -1.55401 298.08 1.45412Z" stroke="#E8F0FB"/>
</svg>
