<svg width="648" height="548" viewBox="0 0 648 548" fill="none" xmlns="http://www.w3.org/2000/svg">
<path d="M494 547.5C546.891 525.77 563.994 498.135 591.792 448.296C619.246 399.076 654.252 346.819 645.683 291.155C637.217 236.163 582.83 202.538 547.347 159.592C517.56 123.54 491.977 85.15 453.48 58.5254C412.693 30.3171 368.281 4.61002 318.738 1.48432C267.887 -1.72387 214.949 10.9615 173.774 40.8787C134.018 69.7656 123.717 122.427 96.2709 163.127C66.4625 207.33 15.6816 238.969 4.99978 291.155C-6.24226 346.078 6.78939 406.007 36.8609 453.373C66.5419 500.125 127.683 525.293 179.547 545" stroke="#E8F0FB"/>
</svg>
